<svg xmlns="http://www.w3.org/2000/svg" viewBox="0 0 1422 800" opacity="0.9">
  <defs>
    <!-- Filtro de blur -->
    <filter id="blur1" x="-10%" y="-10%" width="120%" height="120%">
      <feGaussianBlur stdDeviation="80" result="blur"/>
    </filter>

    <!-- Gradiente fondo -->
    <linearGradient x1="50%" y1="0%" x2="50%" y2="100%" id="grad-fondo">
      <stop stop-color="hsl(0, 0.00%, 0.00%)" stop-opacity="1" offset="0%"/>
      <stop stop-color="hsl(220, 100.00%, 20%)" stop-opacity="1" offset="100%"/>
    </linearGradient>

    <!-- Gradiente curvas -->
    <linearGradient x1="50%" y1="0%" x2="50%" y2="100%" id="grad-curvas">
      <stop stop-color="hsl(108, 87.20%, 42.90%)" stop-opacity="1" offset="0%"/>
      <stop stop-color="hsl(220, 81.20%, 37.50%)" stop-opacity="1" offset="100%"/>
    </linearGradient>
  </defs>

  <!-- Fondo -->
  <rect width="100%" height="100%" fill="url(#grad-fondo)"/>

  <!-- Círculos de fondo con blur -->
  <g stroke-width="1" stroke="url(#grad-fondo)" fill="none" filter="url(#blur1)">
    <circle cx="150" cy="150" r="357" opacity="0.05"/>
    <circle cx="300" cy="100" r="357" opacity="0.11"/>
    <circle cx="750" cy="150" r="357" opacity="0.18"/>
    <circle cx="600" cy="400" r="357" opacity="0.24"/>
    <circle cx="200" cy="500" r="357" opacity="0.30"/>
    <circle cx="700" cy="500" r="357" opacity="0.37"/>
  </g>

  <!-- Curvas encima -->
  <g stroke-width="1" stroke="url(#grad-curvas)" fill="none" stroke-linecap="round">
    <path d="M 0 448 Q 355.5 -100 711 400 Q 1066.5 900 1422 448" opacity="0.05"/>
    <path d="M 0 420 Q 355.5 -100 711 400 Q 1066.5 900 1422 420" opacity="0.11"/>
    <path d="M 0 392 Q 355.5 -100 711 400 Q 1066.5 900 1422 392" opacity="0.18"/>
    <path d="M 0 364 Q 355.5 -100 711 400 Q 1066.5 900 1422 364" opacity="0.24"/>
    <path d="M 0 336 Q 355.5 -100 711 400 Q 1066.5 900 1422 336" opacity="0.30"/>
    <path d="M 0 308 Q 355.5 -100 711 400 Q 1066.5 900 1422 308" opacity="0.37"/>
    <path d="M 0 280 Q 355.5 -100 711 400 Q 1066.5 900 1422 280" opacity="0.43"/>
    <path d="M 0 252 Q 355.5 -100 711 400 Q 1066.5 900 1422 252" opacity="0.49"/>
    <path d="M 0 224 Q 355.5 -100 711 400 Q 1066.5 900 1422 224" opacity="0.56"/>
    <path d="M 0 196 Q 355.5 -100 711 400 Q 1066.5 900 1422 196" opacity="0.62"/>
    <path d="M 0 168 Q 355.5 -100 711 400 Q 1066.5 900 1422 168" opacity="0.68"/>
    <path d="M 0 140 Q 355.5 -100 711 400 Q 1066.5 900 1422 140" opacity="0.75"/>
    <path d="M 0 112 Q 355.5 -100 711 400 Q 1066.5 900 1422 112" opacity="0.81"/>
    <path d="M 0 84 Q 355.5 -100 711 400 Q 1066.5 900 1422 84" opacity="0.87"/>
    <path d="M 0 56 Q 355.5 -100 711 400 Q 1066.5 900 1422 56" opacity="0.94"/>
  </g>
</svg>
